# xmcd
#
# Track frame offsets: 
#        150
#        14112
#        25007
#        41402
#        54705
#        69572
#        87335
#        98945
#        112902
#        131902
#        144055
#        157985
#        176900
#        189260
#        203342
#        216920
#        238211
#        253078
#
# Disc length: 3609 seconds
#
# Revision: 0
# Processed by: cddbd v1.4PL0 Copyright (c) Steve Scherf et al.
# Submitted via: ExactAudioCopy v0.95a3
#
DISCID=fb0e1712
DTITLE=Norah Jones - Come Away With Ma
DYEAR=2002
DGENRE=Vocal
TTITLE0=Don't Know Why
TTITLE1=Seven Years
TTITLE2=Cold Cold Heart
TTITLE3=Feelin' The Same Way
TTITLE4=Come Away With Me
TTITLE5=Shoot The Moon
TTITLE6=Turn Me On
TTITLE7=Lonestar
TTITLE8=I've Got To See You Again
TTITLE9=Painter Song
TTITLE10=One Flight Down
TTITLE11=Nightingale
TTITLE12=The Long Day Is Over
TTITLE13=The Nearness Of You
TTITLE14=Ruler Of My Heart
TTITLE15=Cold Cold Heart (live)
TTITLE16=I'll Be Your Baby Tonight
TTITLE17=Peace
EXTD=
EXTT0=
EXTT1=
EXTT2=
EXTT3=
EXTT4=
EXTT5=
EXTT6=
EXTT7=
EXTT8=
EXTT9=
EXTT10=
EXTT11=
EXTT12=
EXTT13=
EXTT14=
EXTT15=
EXTT16=
EXTT17=
PLAYORDER=
